<mxfile host="app.diagrams.net" modified="2021-04-25T03:00:38.112Z" agent="5.0 (X11; Linux x86_64) AppleWebKit/537.36 (KHTML, like Gecko) Chrome/90.0.4430.85 Safari/537.36" etag="TbAYEBDXIVB437RiYbRq" version="14.6.6" type="github">
  <diagram name="Page-1" id="e7e014a7-5840-1c2e-5031-d8a46d1fe8dd">
    <mxGraphModel dx="868" dy="466" grid="1" gridSize="10" guides="1" tooltips="1" connect="1" arrows="1" fold="1" page="1" pageScale="1" pageWidth="1169" pageHeight="826" background="#ffffff" math="0" shadow="0">
      <root>
        <mxCell id="0" />
        <mxCell id="1" parent="0" />
        <mxCell id="2" value="Thread 1" style="swimlane;whiteSpace=wrap" parent="1" vertex="1" collapsed="1">
          <mxGeometry x="164.5" y="128" width="80" height="23" as="geometry">
            <mxRectangle x="164.5" y="128" width="280" height="570" as="alternateBounds" />
          </mxGeometry>
        </mxCell>
        <mxCell id="5" value="" style="ellipse;shape=startState;fillColor=#000000;strokeColor=#ff0000;" parent="2" vertex="1">
          <mxGeometry x="100" y="40" width="30" height="30" as="geometry" />
        </mxCell>
        <mxCell id="6" value="" style="edgeStyle=elbowEdgeStyle;elbow=horizontal;verticalAlign=bottom;endArrow=open;endSize=8;strokeColor=#FF0000;endFill=1;rounded=0" parent="2" source="5" target="7" edge="1">
          <mxGeometry x="100" y="40" as="geometry">
            <mxPoint x="115" y="110" as="targetPoint" />
          </mxGeometry>
        </mxCell>
        <mxCell id="7" value="idle" style="" parent="2" vertex="1">
          <mxGeometry x="60" y="110" width="110" height="50" as="geometry" />
        </mxCell>
        <mxCell id="8" value="user action" style="" parent="2" vertex="1">
          <mxGeometry x="60" y="220" width="110" height="50" as="geometry" />
        </mxCell>
        <mxCell id="9" value="" style="endArrow=open;strokeColor=#FF0000;endFill=1;rounded=0" parent="2" source="7" target="8" edge="1">
          <mxGeometry relative="1" as="geometry" />
        </mxCell>
        <mxCell id="10" value="post command" style="" parent="2" vertex="1">
          <mxGeometry x="60" y="325" width="110" height="50" as="geometry" />
        </mxCell>
        <mxCell id="11" value="" style="endArrow=open;strokeColor=#FF0000;endFill=1;rounded=0" parent="2" source="8" target="10" edge="1">
          <mxGeometry relative="1" as="geometry" />
        </mxCell>
        <mxCell id="12" value="" style="edgeStyle=elbowEdgeStyle;elbow=horizontal;strokeColor=#FF0000;endArrow=open;endFill=1;rounded=0" parent="2" source="10" target="7" edge="1">
          <mxGeometry width="100" height="100" relative="1" as="geometry">
            <mxPoint x="160" y="290" as="sourcePoint" />
            <mxPoint x="260" y="190" as="targetPoint" />
            <Array as="points">
              <mxPoint x="30" y="250" />
            </Array>
          </mxGeometry>
        </mxCell>
        <mxCell id="3" value="Thread 2" style="swimlane;whiteSpace=wrap" parent="1" vertex="1" collapsed="1">
          <mxGeometry x="444.5" y="128" width="80" height="23" as="geometry">
            <mxRectangle x="444.5" y="128" width="280" height="570" as="alternateBounds" />
          </mxGeometry>
        </mxCell>
        <mxCell id="13" value="" style="ellipse;shape=startState;fillColor=#000000;strokeColor=#ff0000;" parent="3" vertex="1">
          <mxGeometry x="60" y="40" width="30" height="30" as="geometry" />
        </mxCell>
        <mxCell id="14" value="" style="edgeStyle=elbowEdgeStyle;elbow=horizontal;verticalAlign=bottom;endArrow=open;endSize=8;strokeColor=#FF0000;endFill=1;rounded=0" parent="3" source="13" target="15" edge="1">
          <mxGeometry x="40" y="20" as="geometry">
            <mxPoint x="55" y="90" as="targetPoint" />
          </mxGeometry>
        </mxCell>
        <mxCell id="15" value="idle" style="" parent="3" vertex="1">
          <mxGeometry x="20" y="110" width="110" height="50" as="geometry" />
        </mxCell>
        <mxCell id="16" value="check for &#xa;new commands" style="" parent="3" vertex="1">
          <mxGeometry x="20" y="220" width="110" height="50" as="geometry" />
        </mxCell>
        <mxCell id="17" value="" style="endArrow=open;strokeColor=#FF0000;endFill=1;rounded=0" parent="3" source="15" target="16" edge="1">
          <mxGeometry relative="1" as="geometry" />
        </mxCell>
        <mxCell id="18" value="command queue" style="" parent="3" vertex="1">
          <mxGeometry x="20" y="325" width="110" height="50" as="geometry" />
        </mxCell>
        <mxCell id="19" value="" style="endArrow=open;strokeColor=#FF0000;endFill=1;rounded=0" parent="3" source="16" target="18" edge="1">
          <mxGeometry relative="1" as="geometry" />
        </mxCell>
        <mxCell id="21" value="queue empty" style="rhombus;fillColor=#ffffc0;strokeColor=#ff0000;" parent="3" vertex="1">
          <mxGeometry x="150" y="225" width="80" height="40" as="geometry" />
        </mxCell>
        <mxCell id="22" value="yes" style="edgeStyle=elbowEdgeStyle;elbow=horizontal;align=left;verticalAlign=bottom;endArrow=open;endSize=8;strokeColor=#FF0000;exitX=0.5;exitY=0;endFill=1;rounded=0;entryX=0.75;entryY=0.5;entryPerimeter=0" parent="3" source="21" target="25" edge="1">
          <mxGeometry x="-1" relative="1" as="geometry">
            <mxPoint x="160" y="150" as="targetPoint" />
            <Array as="points">
              <mxPoint x="190" y="180" />
            </Array>
          </mxGeometry>
        </mxCell>
        <mxCell id="23" value="no" style="edgeStyle=elbowEdgeStyle;elbow=horizontal;align=left;verticalAlign=top;endArrow=open;endSize=8;strokeColor=#FF0000;endFill=1;rounded=0" parent="3" source="21" target="30" edge="1">
          <mxGeometry x="-1" relative="1" as="geometry">
            <mxPoint x="190" y="305" as="targetPoint" />
          </mxGeometry>
        </mxCell>
        <mxCell id="24" value="" style="endArrow=open;strokeColor=#FF0000;endFill=1;rounded=0" parent="3" source="16" target="21" edge="1">
          <mxGeometry relative="1" as="geometry" />
        </mxCell>
        <mxCell id="25" value="" style="shape=line;strokeWidth=6;strokeColor=#ff0000;rotation=90" parent="3" vertex="1">
          <mxGeometry x="130" y="127.5" width="50" height="15" as="geometry" />
        </mxCell>
        <mxCell id="26" value="" style="edgeStyle=elbowEdgeStyle;elbow=horizontal;verticalAlign=bottom;endArrow=open;endSize=8;strokeColor=#FF0000;endFill=1;rounded=0" parent="3" source="25" target="15" edge="1">
          <mxGeometry x="130" y="90" as="geometry">
            <mxPoint x="230" y="140" as="targetPoint" />
          </mxGeometry>
        </mxCell>
        <mxCell id="30" value="dispatch&#xa;command&#xa;worker thread" style="" parent="3" vertex="1">
          <mxGeometry x="140" y="325" width="110" height="50" as="geometry" />
        </mxCell>
        <mxCell id="31" value="critical&#xa;section" style="shape=note;whiteSpace=wrap;size=17" parent="3" vertex="1">
          <mxGeometry x="105" y="490" width="100" height="50" as="geometry" />
        </mxCell>
        <mxCell id="32" value="" style="endArrow=none;strokeColor=#FF0000;endFill=0;rounded=0;dashed=1" parent="3" source="18" target="31" edge="1">
          <mxGeometry relative="1" as="geometry" />
        </mxCell>
        <mxCell id="34" value="" style="whiteSpace=wrap;strokeColor=#FF0000;fillColor=#FF0000" parent="3" vertex="1">
          <mxGeometry x="245" y="395" width="5" height="45" as="geometry" />
        </mxCell>
        <mxCell id="41" value="" style="edgeStyle=elbowEdgeStyle;elbow=horizontal;entryX=0;entryY=0.5;strokeColor=#FF0000;endArrow=open;endFill=1;rounded=0" parent="3" source="30" target="34" edge="1">
          <mxGeometry width="100" height="100" relative="1" as="geometry">
            <mxPoint x="60" y="480" as="sourcePoint" />
            <mxPoint x="160" y="380" as="targetPoint" />
            <Array as="points">
              <mxPoint x="195" y="400" />
            </Array>
          </mxGeometry>
        </mxCell>
        <mxCell id="4" value="Thread 3" style="swimlane;whiteSpace=wrap" parent="1" vertex="1" collapsed="1">
          <mxGeometry x="724.5" y="128" width="80" height="23" as="geometry">
            <mxRectangle x="724.5" y="128" width="280" height="570" as="alternateBounds" />
          </mxGeometry>
        </mxCell>
        <mxCell id="33" value="process&#xa;command" style="" parent="4" vertex="1">
          <mxGeometry x="90" y="405" width="110" height="50" as="geometry" />
        </mxCell>
        <mxCell id="35" value="" style="edgeStyle=elbowEdgeStyle;elbow=horizontal;strokeColor=#FF0000;endArrow=open;endFill=1;rounded=0;entryX=0.25;entryY=0.5;entryPerimeter=0" parent="4" target="25" edge="1">
          <mxGeometry width="100" height="100" relative="1" as="geometry">
            <mxPoint x="-30" y="410" as="sourcePoint" />
            <mxPoint x="-120" y="120" as="targetPoint" />
            <Array as="points">
              <mxPoint x="-10" y="135" />
            </Array>
          </mxGeometry>
        </mxCell>
        <mxCell id="37" value="" style="edgeStyle=none;strokeColor=#FF0000;endArrow=open;endFill=1;rounded=0" parent="4" target="33" edge="1">
          <mxGeometry width="100" height="100" relative="1" as="geometry">
            <mxPoint x="-30" y="429.5" as="sourcePoint" />
            <mxPoint x="90" y="429.5" as="targetPoint" />
          </mxGeometry>
        </mxCell>
        <mxCell id="38" value="" style="ellipse;shape=endState;fillColor=#000000;strokeColor=#ff0000" parent="4" vertex="1">
          <mxGeometry x="130" y="500" width="30" height="30" as="geometry" />
        </mxCell>
        <mxCell id="39" value="" style="endArrow=open;strokeColor=#FF0000;endFill=1;rounded=0" parent="4" source="33" target="38" edge="1">
          <mxGeometry relative="1" as="geometry" />
        </mxCell>
        <mxCell id="20" value="" style="endArrow=open;strokeColor=#FF0000;endFill=1;rounded=0" parent="1" source="10" target="18" edge="1">
          <mxGeometry relative="1" as="geometry" />
        </mxCell>
        <mxCell id="uuEkGhlUrXqSb5DaChc9-43" value="Recibe documento para procesarlo" style="shape=umlLifeline;perimeter=lifelinePerimeter;whiteSpace=wrap;html=1;container=1;collapsible=0;recursiveResize=0;outlineConnect=0;" vertex="1" parent="1">
          <mxGeometry x="310" y="360" width="120" height="300" as="geometry" />
        </mxCell>
        <mxCell id="uuEkGhlUrXqSb5DaChc9-79" value="Lanza proceso&lt;br&gt;" style="shape=umlBoundary;whiteSpace=wrap;html=1;shadow=0;sketch=0;fillColor=#99CCFF;" vertex="1" parent="uuEkGhlUrXqSb5DaChc9-43">
          <mxGeometry x="60" y="80" width="100" height="80" as="geometry" />
        </mxCell>
        <mxCell id="uuEkGhlUrXqSb5DaChc9-45" value="Control" style="shape=umlLifeline;participant=umlBoundary;perimeter=lifelinePerimeter;whiteSpace=wrap;html=1;container=1;collapsible=0;recursiveResize=0;verticalAlign=top;spacingTop=36;outlineConnect=0;fillColor=#99CCFF;" vertex="1" parent="1">
          <mxGeometry x="220" y="360" width="50" height="300" as="geometry" />
        </mxCell>
        <mxCell id="uuEkGhlUrXqSb5DaChc9-47" value="dispatch" style="html=1;verticalAlign=bottom;startArrow=oval;startFill=1;endArrow=block;startSize=8;exitX=0.8;exitY=-0.012;exitDx=0;exitDy=0;exitPerimeter=0;" edge="1" parent="1" source="uuEkGhlUrXqSb5DaChc9-62" target="uuEkGhlUrXqSb5DaChc9-43">
          <mxGeometry width="60" relative="1" as="geometry">
            <mxPoint x="225" y="480" as="sourcePoint" />
            <mxPoint x="280" y="480" as="targetPoint" />
          </mxGeometry>
        </mxCell>
        <mxCell id="uuEkGhlUrXqSb5DaChc9-49" value="Actor" style="shape=umlActor;verticalLabelPosition=bottom;verticalAlign=top;html=1;fillColor=#66B2FF;" vertex="1" parent="1">
          <mxGeometry x="60" y="360" width="30" height="60" as="geometry" />
        </mxCell>
        <mxCell id="uuEkGhlUrXqSb5DaChc9-50" value="" style="html=1;points=[];perimeter=orthogonalPerimeter;fillColor=#66B2FF;" vertex="1" parent="1">
          <mxGeometry x="70" y="440" width="10" height="190" as="geometry" />
        </mxCell>
        <mxCell id="uuEkGhlUrXqSb5DaChc9-51" value="Archivo" style="shape=umlLifeline;participant=umlEntity;perimeter=lifelinePerimeter;whiteSpace=wrap;html=1;container=1;collapsible=0;recursiveResize=0;verticalAlign=top;spacingTop=36;outlineConnect=0;fillColor=#99CCFF;" vertex="1" parent="1">
          <mxGeometry x="140" y="360" width="40" height="310" as="geometry" />
        </mxCell>
        <mxCell id="uuEkGhlUrXqSb5DaChc9-60" value="" style="html=1;points=[];perimeter=orthogonalPerimeter;shadow=0;sketch=0;fillColor=#99CCFF;" vertex="1" parent="uuEkGhlUrXqSb5DaChc9-51">
          <mxGeometry x="15" y="110" width="10" height="80" as="geometry" />
        </mxCell>
        <mxCell id="uuEkGhlUrXqSb5DaChc9-61" value="dispatch" style="html=1;verticalAlign=bottom;startArrow=oval;endArrow=block;startSize=8;" edge="1" target="uuEkGhlUrXqSb5DaChc9-60" parent="uuEkGhlUrXqSb5DaChc9-51">
          <mxGeometry relative="1" as="geometry">
            <mxPoint x="-45" y="110" as="sourcePoint" />
          </mxGeometry>
        </mxCell>
        <mxCell id="uuEkGhlUrXqSb5DaChc9-70" value="No valido" style="html=1;points=[];perimeter=orthogonalPerimeter;shadow=0;sketch=0;fillColor=#99CCFF;" vertex="1" parent="uuEkGhlUrXqSb5DaChc9-51">
          <mxGeometry x="15" y="230" width="10" height="80" as="geometry" />
        </mxCell>
        <mxCell id="uuEkGhlUrXqSb5DaChc9-56" value="" style="ellipse;html=1;shape=startState;fillColor=#000000;strokeColor=#ff0000;sketch=0;shadow=0;" vertex="1" parent="1">
          <mxGeometry x="60" y="250" width="30" height="30" as="geometry" />
        </mxCell>
        <mxCell id="uuEkGhlUrXqSb5DaChc9-57" value="" style="edgeStyle=orthogonalEdgeStyle;html=1;verticalAlign=bottom;endArrow=open;endSize=8;strokeColor=#ff0000;labelBorderColor=#000000;" edge="1" source="uuEkGhlUrXqSb5DaChc9-56" parent="1">
          <mxGeometry relative="1" as="geometry">
            <mxPoint x="75" y="340" as="targetPoint" />
            <Array as="points">
              <mxPoint x="75" y="300" />
              <mxPoint x="75" y="300" />
            </Array>
          </mxGeometry>
        </mxCell>
        <mxCell id="uuEkGhlUrXqSb5DaChc9-58" value="Proceso&amp;nbsp;" style="shape=umlFrame;whiteSpace=wrap;html=1;shadow=0;sketch=0;fillColor=#99CCFF;" vertex="1" parent="1">
          <mxGeometry x="600" y="400" width="310" height="340" as="geometry" />
        </mxCell>
        <mxCell id="uuEkGhlUrXqSb5DaChc9-62" value="Verifica md5" style="html=1;points=[];perimeter=orthogonalPerimeter;shadow=0;sketch=0;fillColor=#99CCFF;" vertex="1" parent="1">
          <mxGeometry x="240" y="480" width="10" height="80" as="geometry" />
        </mxCell>
        <mxCell id="uuEkGhlUrXqSb5DaChc9-64" value="return" style="html=1;verticalAlign=bottom;endArrow=open;dashed=1;endSize=8;exitX=0;exitY=0.95;" edge="1" source="uuEkGhlUrXqSb5DaChc9-62" parent="1">
          <mxGeometry relative="1" as="geometry">
            <mxPoint x="170" y="556" as="targetPoint" />
          </mxGeometry>
        </mxCell>
        <mxCell id="uuEkGhlUrXqSb5DaChc9-65" value="Es md5 valido" style="rhombus;whiteSpace=wrap;html=1;fillColor=#ffffc0;strokeColor=#ff0000;shadow=0;sketch=0;" vertex="1" parent="1">
          <mxGeometry x="200" y="570" width="80" height="40" as="geometry" />
        </mxCell>
        <mxCell id="uuEkGhlUrXqSb5DaChc9-66" value="no" style="edgeStyle=orthogonalEdgeStyle;html=1;align=left;verticalAlign=bottom;endArrow=open;endSize=8;strokeColor=#ff0000;entryX=0.7;entryY=0.84;entryDx=0;entryDy=0;entryPerimeter=0;" edge="1" source="uuEkGhlUrXqSb5DaChc9-65" parent="1" target="uuEkGhlUrXqSb5DaChc9-51">
          <mxGeometry x="-1" relative="1" as="geometry">
            <mxPoint x="380" y="590" as="targetPoint" />
          </mxGeometry>
        </mxCell>
        <mxCell id="uuEkGhlUrXqSb5DaChc9-67" value="yes" style="edgeStyle=orthogonalEdgeStyle;html=1;align=left;verticalAlign=top;endArrow=open;endSize=8;strokeColor=#ff0000;" edge="1" source="uuEkGhlUrXqSb5DaChc9-65" parent="1">
          <mxGeometry x="-1" relative="1" as="geometry">
            <mxPoint x="310" y="480" as="targetPoint" />
          </mxGeometry>
        </mxCell>
        <mxCell id="uuEkGhlUrXqSb5DaChc9-71" value="dispatch" style="html=1;verticalAlign=bottom;startArrow=oval;endArrow=block;startSize=8;exitX=0;exitY=0.5;exitDx=0;exitDy=0;" edge="1" target="uuEkGhlUrXqSb5DaChc9-70" parent="1" source="uuEkGhlUrXqSb5DaChc9-65">
          <mxGeometry relative="1" as="geometry">
            <mxPoint x="95" y="590" as="sourcePoint" />
            <Array as="points">
              <mxPoint x="190" y="590" />
            </Array>
          </mxGeometry>
        </mxCell>
        <mxCell id="uuEkGhlUrXqSb5DaChc9-73" value="Procesa documento&lt;br&gt;" style="shape=mxgraph.uml25.actionParams;html=1;align=center;verticalAlign=top;absoluteArcSize=1;arcSize=10;dashed=0;spacingLeft=10;spacingTop=5;shadow=0;sketch=0;fillColor=#99CCFF;" vertex="1" parent="1">
          <mxGeometry x="760" y="510" width="150" height="50" as="geometry" />
        </mxCell>
        <mxCell id="uuEkGhlUrXqSb5DaChc9-74" value="Valida formato&lt;br&gt;con maximo&amp;nbsp;&lt;br&gt;10,000 registros lote" style="shape=umlLifeline;perimeter=lifelinePerimeter;whiteSpace=wrap;html=1;container=1;collapsible=0;recursiveResize=0;outlineConnect=0;shadow=0;sketch=0;fillColor=#99CCFF;size=60;" vertex="1" parent="1">
          <mxGeometry x="680" y="410" width="100" height="320" as="geometry" />
        </mxCell>
        <mxCell id="uuEkGhlUrXqSb5DaChc9-75" value="Procesa archivo" style="shape=umlLifeline;perimeter=lifelinePerimeter;whiteSpace=wrap;html=1;container=1;collapsible=0;recursiveResize=0;outlineConnect=0;lifelineDashed=0;shadow=0;sketch=0;fillColor=#99CCFF;" vertex="1" parent="1">
          <mxGeometry x="804.5" y="410" width="100" height="300" as="geometry" />
        </mxCell>
        <mxCell id="uuEkGhlUrXqSb5DaChc9-80" value="" style="shape=waypoint;sketch=0;size=6;pointerEvents=1;points=[];fillColor=#99CCFF;resizable=0;rotatable=0;perimeter=centerPerimeter;snapToPoint=1;shadow=0;" vertex="1" parent="1">
          <mxGeometry x="585" y="400" width="40" height="40" as="geometry" />
        </mxCell>
        <mxCell id="uuEkGhlUrXqSb5DaChc9-81" value="" style="edgeStyle=orthogonalEdgeStyle;rounded=0;orthogonalLoop=1;jettySize=auto;html=1;" edge="1" parent="1" source="uuEkGhlUrXqSb5DaChc9-79" target="uuEkGhlUrXqSb5DaChc9-80">
          <mxGeometry relative="1" as="geometry" />
        </mxCell>
        <mxCell id="uuEkGhlUrXqSb5DaChc9-83" value="Comprador" style="shape=umlLifeline;perimeter=lifelinePerimeter;whiteSpace=wrap;html=1;container=1;collapsible=0;recursiveResize=0;outlineConnect=0;shadow=0;sketch=0;fillColor=#99CCFF;" vertex="1" parent="1">
          <mxGeometry x="930" y="410" width="100" height="300" as="geometry" />
        </mxCell>
        <mxCell id="uuEkGhlUrXqSb5DaChc9-97" value="" style="html=1;points=[];perimeter=orthogonalPerimeter;shadow=0;sketch=0;fillColor=#99CCFF;" vertex="1" parent="uuEkGhlUrXqSb5DaChc9-83">
          <mxGeometry x="45" y="110" width="10" height="80" as="geometry" />
        </mxCell>
        <mxCell id="uuEkGhlUrXqSb5DaChc9-106" value="" style="html=1;points=[];perimeter=orthogonalPerimeter;shadow=0;sketch=0;fillColor=#99CCFF;" vertex="1" parent="uuEkGhlUrXqSb5DaChc9-83">
          <mxGeometry x="45" y="210" width="15" height="25" as="geometry" />
        </mxCell>
        <mxCell id="uuEkGhlUrXqSb5DaChc9-84" value="Caja" style="shape=umlLifeline;perimeter=lifelinePerimeter;whiteSpace=wrap;html=1;container=1;collapsible=0;recursiveResize=0;outlineConnect=0;shadow=0;sketch=0;fillColor=#99CCFF;" vertex="1" parent="1">
          <mxGeometry x="1051" y="410" width="109" height="300" as="geometry" />
        </mxCell>
        <mxCell id="uuEkGhlUrXqSb5DaChc9-98" value="" style="html=1;points=[];perimeter=orthogonalPerimeter;shadow=0;sketch=0;fillColor=#99CCFF;" vertex="1" parent="uuEkGhlUrXqSb5DaChc9-84">
          <mxGeometry x="41" y="110" width="10" height="80" as="geometry" />
        </mxCell>
        <mxCell id="uuEkGhlUrXqSb5DaChc9-109" value="" style="html=1;points=[];perimeter=orthogonalPerimeter;shadow=0;sketch=0;fillColor=#99CCFF;" vertex="1" parent="uuEkGhlUrXqSb5DaChc9-84">
          <mxGeometry x="41" y="206" width="10" height="30" as="geometry" />
        </mxCell>
        <mxCell id="uuEkGhlUrXqSb5DaChc9-113" value="name" style="endArrow=block;endFill=1;html=1;edgeStyle=orthogonalEdgeStyle;align=left;verticalAlign=top;" edge="1" parent="uuEkGhlUrXqSb5DaChc9-84">
          <mxGeometry x="-1" relative="1" as="geometry">
            <mxPoint x="51" y="250" as="sourcePoint" />
            <mxPoint x="76" y="250" as="targetPoint" />
          </mxGeometry>
        </mxCell>
        <mxCell id="uuEkGhlUrXqSb5DaChc9-114" value="1" style="edgeLabel;resizable=0;html=1;align=left;verticalAlign=bottom;" connectable="0" vertex="1" parent="uuEkGhlUrXqSb5DaChc9-113">
          <mxGeometry x="-1" relative="1" as="geometry" />
        </mxCell>
        <mxCell id="uuEkGhlUrXqSb5DaChc9-120" value="" style="ellipse;fillColor=#000000;strokeColor=none;shadow=0;sketch=0;" vertex="1" parent="uuEkGhlUrXqSb5DaChc9-84">
          <mxGeometry x="76" y="240" width="20" height="20" as="geometry" />
        </mxCell>
        <mxCell id="uuEkGhlUrXqSb5DaChc9-99" value="dispatch" style="html=1;verticalAlign=bottom;startArrow=oval;endArrow=block;startSize=8;" edge="1" target="uuEkGhlUrXqSb5DaChc9-98" parent="1" source="uuEkGhlUrXqSb5DaChc9-83">
          <mxGeometry x="0.0805" y="30" relative="1" as="geometry">
            <mxPoint x="1050" y="520" as="sourcePoint" />
            <mxPoint as="offset" />
          </mxGeometry>
        </mxCell>
        <mxCell id="uuEkGhlUrXqSb5DaChc9-100" value="CalculoTotal" style="text;html=1;align=center;verticalAlign=middle;resizable=0;points=[];autosize=1;strokeColor=none;" vertex="1" parent="1">
          <mxGeometry x="1000" y="540" width="80" height="20" as="geometry" />
        </mxCell>
        <mxCell id="uuEkGhlUrXqSb5DaChc9-101" value="return" style="html=1;verticalAlign=bottom;endArrow=open;dashed=1;endSize=8;" edge="1" parent="1" target="uuEkGhlUrXqSb5DaChc9-83">
          <mxGeometry relative="1" as="geometry">
            <mxPoint x="1110" y="590" as="sourcePoint" />
            <mxPoint x="1030" y="590" as="targetPoint" />
          </mxGeometry>
        </mxCell>
        <object label="dispatch" placeholders="1" id="uuEkGhlUrXqSb5DaChc9-103">
          <mxCell style="html=1;verticalAlign=bottom;startArrow=oval;startFill=1;endArrow=block;startSize=8;" edge="1" parent="1" target="uuEkGhlUrXqSb5DaChc9-106">
            <mxGeometry width="60" relative="1" as="geometry">
              <mxPoint x="940" y="620" as="sourcePoint" />
              <mxPoint x="980" y="620" as="targetPoint" />
              <Array as="points" />
            </mxGeometry>
          </mxCell>
        </object>
        <mxCell id="uuEkGhlUrXqSb5DaChc9-110" value="" style="edgeStyle=orthogonalEdgeStyle;rounded=0;orthogonalLoop=1;jettySize=auto;html=1;" edge="1" parent="1" source="uuEkGhlUrXqSb5DaChc9-106">
          <mxGeometry relative="1" as="geometry">
            <mxPoint x="1111" y="633" as="targetPoint" />
          </mxGeometry>
        </mxCell>
      </root>
    </mxGraphModel>
  </diagram>
</mxfile>
